<?xml version="1.0" standalone="no"?>
<!DOCTYPE svg PUBLIC "-//W3C//DTD SVG 20010904//EN"
 "http://www.w3.org/TR/2001/REC-SVG-20010904/DTD/svg10.dtd">
<svg version="1.0" xmlns="http://www.w3.org/2000/svg"
 width="133.000000pt" height="133.000000pt" viewBox="0 0 133.000000 133.000000"
 preserveAspectRatio="xMidYMid meet">

<g transform="translate(0.000000,133.000000) scale(0.100000,-0.100000)"
fill="#000000" stroke="none">
<path d="M416 868 c-9 -12 -16 -32 -16 -43 0 -18 -5 -20 -40 -17 -46 5 -70
-10 -70 -42 0 -12 -6 -28 -12 -35 -11 -11 -10 -13 5 -7 10 3 30 6 44 6 15 0
23 5 20 13 -2 6 -14 11 -25 9 -14 -2 -22 2 -22 11 0 23 26 39 57 35 27 -3 28
-5 31 -72 2 -49 -1 -75 -13 -92 -18 -28 -35 -31 -42 -6 -2 9 -19 24 -36 32
-30 14 -32 19 -35 75 -2 33 -10 70 -18 83 -14 21 -18 22 -37 10 -27 -17 -81
-16 -103 3 -14 12 -19 10 -35 -10 -14 -17 -19 -39 -19 -88 0 -93 35 -148 78
-124 9 5 26 5 39 0 19 -7 29 -4 49 16 13 13 24 31 24 40 0 8 2 15 5 15 5 0 33
-23 69 -57 32 -31 53 -29 76 10 l20 32 0 -27 c0 -25 22 -58 39 -58 4 0 15 6
26 13 14 11 17 22 12 55 -4 31 -2 42 8 42 7 0 20 3 29 6 13 5 16 -1 16 -34 0
-52 30 -92 57 -76 12 8 19 26 21 58 2 25 7 46 12 46 4 0 15 3 24 6 13 5 16 -1
16 -30 0 -43 20 -56 87 -56 52 0 73 12 73 42 0 18 1 18 28 1 15 -10 33 -26 40
-35 16 -22 45 -23 62 -3 11 14 15 14 32 -2 26 -23 52 -7 56 36 3 27 7 31 33
31 16 0 29 -5 29 -10 0 -6 11 -22 25 -35 62 -63 164 10 141 100 -16 64 -94 88
-140 42 -22 -22 -24 -23 -35 -5 -6 10 -18 18 -26 18 -8 0 -24 6 -35 12 -16 10
-24 10 -41 0 -15 -10 -24 -11 -32 -3 -17 17 -73 13 -92 -5 -9 -10 -14 -25 -12
-36 3 -11 -2 -22 -14 -28 -11 -6 -19 -21 -19 -36 0 -21 -3 -23 -19 -14 -11 5
-28 10 -38 10 -17 0 -19 6 -15 60 6 83 -24 115 -70 73 -17 -15 -18 -15 -18 5
0 54 -79 82 -115 42 l-18 -20 -19 20 c-26 28 -82 27 -102 -2z m88 -4 c16 -16
17 -21 20 -72 1 -23 -3 -28 -24 -27 -21 0 -26 6 -31 35 l-6 35 -2 -42 c-1 -41
0 -43 28 -43 31 0 46 -21 28 -39 -6 -6 -19 -11 -30 -11 -15 0 -18 -7 -15 -47
3 -42 1 -48 -18 -51 -28 -4 -33 10 -40 128 -6 83 -4 103 10 125 19 29 56 33
80 9z m145 -15 c17 -30 8 -77 -15 -86 -21 -8 -35 16 -27 47 4 19 3 22 -6 14
-7 -6 -11 -24 -9 -40 2 -23 9 -30 33 -34 41 -7 46 -38 7 -46 -28 -6 -29 -7
-24 -55 4 -47 4 -49 -22 -49 -14 0 -26 3 -26 8 0 4 -5 46 -11 92 -11 94 -6
141 18 165 22 23 65 15 82 -16z m91 -34 c8 -10 10 -33 5 -75 -7 -57 -6 -60 15
-60 48 0 81 -40 44 -54 -31 -12 -93 -6 -109 11 -14 14 -17 30 -13 90 6 90 28
124 58 88z m-630 -64 c0 -39 5 -73 10 -76 6 -4 10 16 10 52 0 65 10 89 34 80
12 -5 16 -22 17 -74 l2 -68 7 68 c7 68 19 95 39 83 16 -10 13 -111 -4 -151
-16 -39 -40 -53 -64 -38 -11 7 -21 7 -32 0 -40 -25 -69 20 -69 104 0 56 13 89
35 89 12 0 15 -15 15 -69z m850 34 c17 -20 6 -143 -14 -163 -15 -15 -36 -9
-36 11 0 7 -13 18 -30 24 -59 22 -44 73 23 73 18 0 27 4 24 13 -2 6 -13 11
-25 9 -27 -4 -36 13 -16 32 20 20 58 21 74 1z m76 1 c3 -8 12 -12 20 -9 8 3
21 0 29 -7 20 -17 19 -69 -1 -77 -18 -7 -35 14 -27 34 3 7 0 13 -6 13 -7 0
-11 -21 -11 -53 0 -55 -13 -79 -36 -70 -10 4 -14 25 -14 78 0 40 3 80 6 89 8
20 33 21 40 2z m204 -16 c31 -31 28 -102 -6 -129 -35 -28 -59 -26 -91 5 -21
21 -25 32 -20 66 3 22 13 48 23 59 22 25 69 24 94 -1z"/>
<path d="M1176 744 c-9 -22 -7 -54 2 -54 15 0 32 24 32 47 0 26 -25 31 -34 7z"/>
<path d="M317 696 c-6 -16 16 -40 26 -29 4 3 7 15 7 25 0 21 -25 24 -33 4z"/>
<path d="M207 542 c6 -4 13 -23 16 -42 l4 -35 1 37 c1 20 8 39 15 41 6 3 -1 6
-18 6 -17 0 -25 -3 -18 -7z"/>
<path d="M557 543 c-4 -3 -7 -22 -7 -41 0 -42 9 -38 12 4 1 16 7 32 13 36 7 5
7 8 -1 8 -6 0 -14 -3 -17 -7z"/>
<path d="M623 510 c0 -25 2 -35 4 -22 6 29 43 31 43 2 0 -11 4 -20 9 -20 4 0
8 18 8 40 0 22 -4 40 -8 40 -5 0 -9 -7 -9 -15 0 -21 -38 -19 -43 3 -3 9 -5 -3
-4 -28z"/>
<path d="M362 510 c2 -18 9 -35 16 -36 7 -1 8 0 2 3 -13 6 -13 30 1 35 7 2 5
9 -6 18 -15 12 -16 11 -13 -20z"/>
<path d="M271 520 c-20 -12 -8 -45 17 -48 18 -3 22 1 22 21 0 27 -19 40 -39
27z m29 -26 c0 -8 -7 -14 -15 -14 -15 0 -21 21 -9 33 10 9 24 -2 24 -19z"/>
<path d="M411 521 c-17 -11 -10 -45 9 -47 13 -1 13 0 1 4 -11 3 -9 7 8 16 18
10 20 15 9 24 -8 6 -19 7 -27 3z m19 -11 c0 -5 -5 -10 -11 -10 -5 0 -7 5 -4
10 3 6 8 10 11 10 2 0 4 -4 4 -10z"/>
<path d="M502 521 c-19 -11 -11 -45 11 -49 9 -2 20 4 23 13 9 21 -16 47 -34
36z m20 -33 c-6 -6 -15 -9 -18 -5 -4 3 -4 14 0 23 5 13 9 15 18 6 9 -9 9 -15
0 -24z"/>
<path d="M711 520 c-20 -12 -8 -45 17 -48 18 -3 22 1 22 21 0 27 -19 40 -39
27z m29 -26 c0 -8 -7 -14 -15 -14 -15 0 -21 21 -9 33 10 9 24 -2 24 -19z"/>
<path d="M1016 516 c7 -19 -12 -22 -20 -3 -3 6 -4 1 -3 -13 1 -16 9 -26 22
-27 19 -3 19 -3 1 5 -18 8 -18 9 -2 15 30 12 49 8 42 -8 -3 -8 -1 -15 4 -15
11 0 13 11 4 34 -3 9 -10 13 -15 10 -6 -3 -17 0 -25 7 -12 10 -13 9 -8 -5z"/>
<path d="M320 511 c0 -6 5 -13 10 -16 6 -4 7 -12 4 -18 -5 -9 -4 -9 5 -1 6 6
9 18 5 27 -7 18 -24 23 -24 8z"/>
<path d="M770 483 c0 -21 4 -33 8 -27 4 6 15 13 25 17 17 6 25 47 8 47 -5 0
-7 -9 -4 -20 4 -14 0 -20 -12 -20 -12 0 -16 6 -12 20 3 11 1 20 -4 20 -5 0 -9
-17 -9 -37z"/>
<path d="M830 491 c0 -25 3 -28 26 -23 29 5 42 28 26 44 -7 7 -10 4 -9 -8 1
-11 -4 -19 -13 -19 -9 0 -14 7 -12 18 2 9 -2 17 -8 17 -5 0 -10 -13 -10 -29z"/>
<path d="M902 495 c0 -16 2 -22 5 -12 2 9 2 23 0 30 -3 6 -5 -1 -5 -18z"/>
<path d="M930 495 c0 -14 2 -25 4 -25 2 0 6 11 8 25 3 14 1 25 -3 25 -5 0 -9
-11 -9 -25z"/>
<path d="M961 513 c0 -4 4 -17 9 -28 8 -19 9 -19 9 2 1 12 -3 25 -9 28 -5 3
-10 3 -9 -2z"/>
<path d="M1080 512 c0 -6 5 -14 10 -17 6 -4 7 -11 4 -17 -4 -7 -2 -8 5 -4 9 6
9 12 -1 24 -7 10 -14 19 -15 21 -2 2 -3 -1 -3 -7z"/>
</g>
</svg>
